<?xml version="1.0" standalone="no"?>
<!DOCTYPE svg PUBLIC "-//W3C//DTD SVG 20010904//EN"
 "http://www.w3.org/TR/2001/REC-SVG-20010904/DTD/svg10.dtd">
<svg version="1.0" xmlns="http://www.w3.org/2000/svg"
 width="225.000000pt" height="225.000000pt" viewBox="0 0 225.000000 225.000000"
 preserveAspectRatio="xMidYMid meet">

<g transform="translate(0.000000,225.000000) scale(0.100000,-0.100000)"
fill="#000000" stroke="none">
<path d="M997 1964 c-3 -4 -97 -7 -208 -8 -152 -1 -203 -4 -206 -13 -3 -7 -12
-13 -21 -13 -15 -1 -14 -3 2 -15 11 -8 14 -15 8 -15 -9 0 -11 -25 -7 -97 3
-54 7 -166 8 -250 2 -107 7 -156 16 -167 10 -11 10 -16 2 -16 -9 0 -11 -34 -6
-132 12 -288 13 -356 2 -367 -7 -7 -7 -19 2 -38 9 -20 12 -88 10 -247 l-3
-220 45 -38 c92 -79 233 -112 484 -113 214 0 302 16 409 73 82 44 120 89 109
131 -4 14 -7 106 -7 204 0 97 -4 177 -9 177 -5 0 1 12 12 26 16 20 18 30 10
40 -10 12 -4 498 6 527 3 7 6 125 8 262 1 138 6 255 10 261 18 30 -25 38 -256
45 -295 10 -412 11 -420 3z m256 -41 c-73 -2 -193 -2 -265 0 -73 1 -14 3 132
3 146 0 205 -2 133 -3z m-430 -560 c-7 -2 -21 -2 -30 0 -10 3 -4 5 12 5 17 0
24 -2 18 -5z m595 -165 c8 -8 12 -48 12 -139 0 -118 -2 -130 -22 -154 -22 -24
-30 -26 -163 -35 -77 -5 -189 -6 -249 -1 -102 7 -111 10 -133 35 -21 25 -23
36 -23 150 0 166 -7 160 182 152 79 -3 188 -2 243 2 102 9 131 7 153 -10z"/>
<path d="M870 1176 c-16 -16 -13 -238 4 -261 10 -13 33 -21 82 -26 147 -17
409 -3 440 22 9 8 13 30 12 68 l-2 56 -3 -52 c-2 -28 -10 -57 -18 -63 -35 -29
-449 -33 -492 -4 -22 14 -23 21 -23 129 0 71 4 116 11 121 19 11 503 12 518 0
11 -9 13 -8 9 4 -4 13 -43 15 -266 16 -163 0 -266 -4 -272 -10z"/>
<path d="M1308 1122 c-16 -3 -18 -16 -18 -91 l0 -87 35 4 c34 4 50 22 20 22
-11 0 -15 18 -17 78 -3 67 -5 77 -20 74z"/>
<path d="M1100 1101 c-14 -28 -13 -136 3 -149 27 -21 54 -22 78 -3 20 16 24
28 24 79 0 35 -5 66 -14 75 -19 24 -78 22 -91 -2z m68 -80 c-2 -44 -7 -57 -20
-59 -16 -3 -18 5 -18 61 0 69 6 83 27 65 10 -8 13 -29 11 -67z"/>
<path d="M1230 1029 c0 -81 2 -90 18 -87 14 3 17 17 20 91 3 82 2 87 -18 87
-19 0 -20 -6 -20 -91z"/>
<path d="M950 1072 c-36 -54 -41 -69 -28 -97 20 -45 101 -46 117 -2 9 22 -8
63 -47 114 l-17 22 -25 -37z m5 -111 c-10 -9 -25 14 -24 37 l1 27 13 -30 c7
-16 12 -32 10 -34z"/>
</g>
</svg>
