<?xml version="1.0" standalone="no"?>
<!DOCTYPE svg PUBLIC "-//W3C//DTD SVG 20010904//EN"
 "http://www.w3.org/TR/2001/REC-SVG-20010904/DTD/svg10.dtd">
<svg version="1.0" xmlns="http://www.w3.org/2000/svg"
 width="900.000000pt" height="520.000000pt" viewBox="0 0 900.000000 520.000000"
 preserveAspectRatio="xMidYMid meet">

<g transform="translate(0.000000,520.000000) scale(0.100000,-0.100000)"
fill="#000000" stroke="none">
<path d="M4500 5070 l0 -130 -130 0 -130 0 -2 -767 -3 -768 -75 -3 c-41 -1
-93 -4 -115 -5 l-40 -2 -5 -111 c-4 -72 -11 -118 -19 -128 -11 -13 -34 -16
-115 -16 -55 0 -106 -4 -113 -8 -8 -5 -13 -45 -15 -117 l-3 -110 -127 -3 -128
-3 0 -129 0 -130 -130 0 -130 0 0 -130 0 -130 -255 0 -255 0 -6 25 c-3 13 -4
67 -2 119 2 60 -1 95 -7 95 -5 -1 -62 0 -125 2 l-115 3 130 6 130 6 -127 2
c-89 1 -129 6 -135 15 -4 6 -7 60 -7 120 l2 107 -117 2 -116 2 120 6 120 6
-127 2 -128 2 -1 253 c-1 138 -3 244 -6 235 -3 -14 -7 -15 -18 -5 -9 9 -10 14
-1 20 6 5 -14 6 -44 3 -30 -3 -85 -6 -122 -6 l-68 0 0 -630 0 -630 111 0 c61
0 119 -5 130 -10 17 -10 19 -23 20 -133 0 -77 4 -115 9 -102 7 17 9 17 9 3 1
-16 13 -18 110 -18 77 0 112 -4 118 -12 4 -7 8 -65 8 -128 l0 -115 127 -3
c150 -3 142 5 137 -142 -3 -68 -1 -91 9 -95 8 -3 64 -6 125 -7 l112 -2 -130
-6 -130 -6 128 -2 127 -2 2 -127 2 -128 6 110 6 110 3 -105 c2 -58 3 -108 2
-112 0 -5 53 -8 119 -8 l120 0 0 -510 0 -510 254 0 254 0 6 22 c3 13 2 24 -2
25 -4 2 -6 46 -4 98 l3 95 -123 2 -123 2 120 6 120 6 -122 2 -123 2 0 130 0
130 125 0 125 0 0 119 c0 85 4 122 13 128 6 4 63 10 126 13 l114 5 0 118 0
118 129 -3 130 -3 1 -120 c0 -110 1 -113 7 -45 l6 75 2 -72 2 -73 104 0 c57 0
111 -3 120 -6 14 -5 16 -49 16 -390 l0 -384 253 0 252 0 3 120 3 120 -123 2
-123 2 125 6 125 6 -127 2 -128 2 0 510 0 510 125 0 c69 0 125 3 125 8 0 4
-53 7 -117 6 l-118 0 104 3 c58 2 110 8 116 13 6 5 10 49 9 112 -1 68 2 106
10 110 6 4 62 8 124 8 73 0 111 4 107 10 -3 6 -2 10 4 10 5 0 11 -6 14 -12 2
-7 4 42 3 110 -1 77 2 126 9 132 6 5 64 10 128 11 l117 1 0 379 0 379 130 0
130 0 0 -130 0 -131 128 3 127 3 0 255 0 255 -258 3 -257 2 2 253 3 252 23 -2
c12 -2 22 2 22 7 0 6 172 10 484 10 l483 0 5 108 c3 59 3 113 1 120 -4 9 -90
12 -384 12 l-379 0 0 130 0 130 643 2 642 3 -635 5 -635 5 633 3 632 2 0 500
0 499 -127 3 -128 3 -3 128 -3 127 -1149 0 -1150 0 0 -130z m17 -62 c-2 -35
-3 -7 -3 62 0 69 1 97 3 63 2 -35 2 -91 0 -125z m431 -55 c-26 -2 -71 -2 -100
0 -29 2 -8 3 47 3 55 0 79 -1 53 -3z m72 -132 c0 -91 -3 -121 -14 -130 -10 -8
-51 -11 -128 -9 l-113 3 -3 128 -3 127 131 0 130 0 0 -119z m-757 89 c-3 -11
-7 -20 -9 -20 -2 0 -4 9 -4 20 0 11 4 20 9 20 5 0 7 -9 4 -20z m170 13 c-29
-2 -77 -2 -105 0 -29 2 -6 3 52 3 58 0 81 -1 53 -3z m2570 0 c-29 -2 -78 -2
-110 0 -32 2 -8 3 52 3 61 0 87 -1 58 -3z m-2746 -95 c-2 -13 -4 -5 -4 17 -1
22 1 32 4 23 2 -10 2 -28 0 -40z m0 -360 c-2 -24 -4 -5 -4 42 0 47 2 66 4 43
2 -24 2 -62 0 -85z m1510 -730 c-2 -35 -3 -9 -3 57 0 66 1 94 3 63 2 -32 2
-86 0 -120z m560 -95 c-98 -2 -256 -2 -350 0 -95 1 -14 3 178 2 193 0 270 -1
172 -2z m-2657 -759 c-84 -8 -180 -8 -180 -1 0 4 48 6 108 5 59 -1 91 -3 72
-4z m2223 -1 c-62 -2 -165 -2 -230 0 -65 1 -14 3 112 3 127 0 180 -2 118 -3z
m137 -8 c0 -8 -2 -15 -4 -15 -2 0 -6 7 -10 15 -3 8 -1 15 4 15 6 0 10 -7 10
-15z m-307 -222 c-35 -2 -91 -2 -125 0 -35 2 -7 3 62 3 69 0 97 -1 63 -3z
m-2370 -30 l-112 -4 -4 -117 -3 -117 -2 123 -2 122 118 -2 117 -2 -112 -3z
m2449 -151 c2 -45 0 -82 -4 -82 -5 0 -7 55 -6 123 2 124 5 109 10 -41z m181
-79 c-29 -2 -77 -2 -105 0 -29 2 -6 3 52 3 58 0 81 -1 53 -3z m-2930 -30 c-57
-2 -149 -2 -205 0 -57 1 -11 3 102 3 113 0 159 -2 103 -3z m-836 -410 c-2 -16
-4 -5 -4 22 0 28 2 40 4 28 2 -13 2 -35 0 -50z m368 -317 c11 -2 -13 -4 -52
-5 -40 0 -73 2 -73 7 0 6 79 5 125 -2z m2573 -3 c-16 -2 -40 -2 -55 0 -16 2
-3 4 27 4 30 0 43 -2 28 -4z m-1990 -520 c-21 -2 -57 -2 -80 0 -24 2 -7 4 37
4 44 0 63 -2 43 -4z m1015 0 c-29 -2 -77 -2 -105 0 -29 2 -6 3 52 3 58 0 81
-1 53 -3z m-946 -776 c-1 -138 -2 -25 -2 253 0 278 1 391 2 252 2 -138 2 -366
0 -505z m1280 -65 c-1 -103 -2 -18 -2 188 0 206 1 291 2 187 2 -103 2 -271 0
-375z"/>
<path d="M3745 3150 c-3 -5 -1 -10 4 -10 6 0 11 5 11 10 0 6 -2 10 -4 10 -3 0
-8 -4 -11 -10z"/>
</g>
</svg>
